<svg xmlns="http://www.w3.org/2000/svg" viewBox="0 0 200 200" width="200" height="200">
  <rect width="200" height="200" fill="#fff"/>
  <rect x="10" y="10" width="50" height="50" fill="#1a2744"/>
  <rect x="20" y="20" width="30" height="30" fill="#fff"/>
  <rect x="28" y="28" width="14" height="14" fill="#1a2744"/>
  <rect x="140" y="10" width="50" height="50" fill="#1a2744"/>
  <rect x="150" y="20" width="30" height="30" fill="#fff"/>
  <rect x="158" y="28" width="14" height="14" fill="#1a2744"/>
  <rect x="10" y="140" width="50" height="50" fill="#1a2744"/>
  <rect x="20" y="150" width="30" height="30" fill="#fff"/>
  <rect x="28" y="158" width="14" height="14" fill="#1a2744"/>
  <g fill="#1a2744">
    <rect x="70" y="15" width="8" height="8"/><rect x="86" y="15" width="8" height="8"/><rect x="102" y="15" width="8" height="8"/>
    <rect x="70" y="31" width="8" height="8"/><rect x="118" y="31" width="8" height="8"/>
    <rect x="70" y="70" width="60" height="60" rx="4" fill="#c45c26"/>
    <text x="100" y="105" text-anchor="middle" fill="#fff" font-family="Arial,sans-serif" font-size="11" font-weight="bold">SCAN TO PAY</text>
    <rect x="15" y="75" width="6" height="6"/><rect x="30" y="90" width="6" height="6"/><rect x="45" y="105" width="6" height="6"/>
    <rect x="150" y="75" width="6" height="6"/><rect x="165" y="95" width="6" height="6"/><rect x="180" y="115" width="6" height="6"/>
    <rect x="75" y="145" width="8" height="8"/><rect x="95" y="165" width="8" height="8"/><rect x="115" y="175" width="8" height="8"/>
    <rect x="145" y="145" width="8" height="8"/><rect x="165" y="155" width="8" height="8"/><rect x="175" y="175" width="8" height="8"/>
  </g>
</svg>
